# xmcd
#
# Track frame offsets:
#	150
#	28804
#	44798
#	66762
#	84895
#	110682
#	129762
#	155896
#	198725
#
# Disc length: 2881 seconds
#
# Revision: 1
# Processed by: cddbd v1.4PL0 Copyright (c) Steve Scherf et al.
# Submitted via: audiograbber 1.81.02
#
DISCID=7f0b3f09
DTITLE=Rockin' Blues Hounds - Turn Up The Blues
DYEAR=2002
DGENRE=Blues
TTITLE0=Southbound Blues
TTITLE1=Baby That's You
TTITLE2=The Way That You Treat Me
TTITLE3=It May Be Wrong But It's Right For Me
TTITLE4=This Rut I'm In
TTITLE5=Saturday Night Steppin' Out
TTITLE6=Drinkin' Again
TTITLE7=Broken Hearted Man
TTITLE8=Dust My Broom
EXTD=
EXTT0=
EXTT1=
EXTT2=
EXTT3=
EXTT4=
EXTT5=
EXTT6=
EXTT7=
EXTT8=
PLAYORDER=
